<svg width="60" height="60" viewBox="0 0 60 60" fill="none" xmlns="http://www.w3.org/2000/svg">
<circle cx="30" cy="30" r="29.5" fill="white" stroke="#D9D9D9"/>
<path d="M31.7461 37.8828V33.6289L31.6758 31.7188L32.6719 32.75L33.7266 33.8281C33.8906 34.0039 34.125 34.0977 34.3594 34.0977C34.8281 34.0977 35.1797 33.7578 35.1797 33.2891C35.1797 33.0195 35.0742 32.8203 34.8867 32.6562L31.5117 29.5508C31.2656 29.3281 31.0781 29.2461 30.8555 29.2461C30.6328 29.2461 30.4453 29.3281 30.1992 29.5508L26.8242 32.6562C26.6367 32.8203 26.5312 33.0195 26.5312 33.2891C26.5312 33.7578 26.8711 34.0977 27.3516 34.0977C27.5742 34.0977 27.8203 34.0039 27.9844 33.8281L29.0391 32.75L30.0352 31.7188L29.9648 33.6289V37.8828C29.9648 38.3633 30.375 38.75 30.8555 38.75C31.3359 38.75 31.7461 38.3633 31.7461 37.8828ZM24.6328 42.125H37.0781C39.5039 42.125 40.7109 40.8945 40.7109 38.457V27.8164C40.7109 26.3047 40.5352 25.6484 39.5977 24.6875L33.1406 18.1133C32.25 17.1992 31.5117 17 30.1992 17H24.6328C22.2188 17 21 18.2422 21 20.6797V38.457C21 40.9062 22.207 42.125 24.6328 42.125ZM24.7148 40.2383C23.5078 40.2383 22.8867 39.5938 22.8867 38.4219V20.7148C22.8867 19.5547 23.5078 18.8867 24.7266 18.8867H29.9414V25.6953C29.9414 27.1719 30.6797 27.8984 32.1445 27.8984H38.8242V38.4219C38.8242 39.5938 38.2031 40.2383 36.9844 40.2383H24.7148ZM32.3555 26.1289C31.8867 26.1289 31.7109 25.9414 31.7109 25.4727V19.25L38.4609 26.1289H32.3555Z" fill="#3AC3EF"/>
</svg>
