<svg width="60" height="60" viewBox="0 0 60 60" fill="none" xmlns="http://www.w3.org/2000/svg">
<circle cx="30" cy="30" r="29.5" fill="white" stroke="#D9D9D9"/>
<g clip-path="url(#clip0_34_379)">
<path d="M22 29.3867C22 33.9805 25.0352 37.2031 29.5 37.5781V40.3086H25.1523C24.6602 40.3086 24.2617 40.707 24.2617 41.1992C24.2617 41.6914 24.6602 42.0781 25.1523 42.0781H35.6172C36.1094 42.0781 36.5078 41.6914 36.5078 41.1992C36.5078 40.707 36.1094 40.3086 35.6172 40.3086H31.2695V37.5781C35.7461 37.2031 38.7695 33.9805 38.7695 29.3867V27.0078C38.7695 26.5156 38.3828 26.1289 37.8906 26.1289C37.3984 26.1289 37 26.5156 37 27.0078V29.3164C37 33.3125 34.3984 35.9609 30.3906 35.9609C26.3711 35.9609 23.7695 33.3125 23.7695 29.3164V27.0078C23.7695 26.5156 23.3828 26.1289 22.8789 26.1289C22.3867 26.1289 22 26.5156 22 27.0078V29.3867ZM26.125 28.9648C26.125 31.6602 27.8594 33.5586 30.3906 33.5586C32.9102 33.5586 34.6445 31.6602 34.6445 28.9648V21.5938C34.6445 18.8867 32.9102 17 30.3906 17C27.8594 17 26.125 18.8867 26.125 21.5938V28.9648ZM27.8945 28.9648V21.5938C27.8945 19.8594 28.8906 18.7461 30.3906 18.7461C31.8906 18.7461 32.875 19.8594 32.875 21.5938V28.9648C32.875 30.6992 31.8906 31.8125 30.3906 31.8125C28.8906 31.8125 27.8945 30.6992 27.8945 28.9648Z" fill="#3AC3EF"/>
</g>
<defs>
<clipPath id="clip0_34_379">
<rect width="16.7695" height="26.7539" fill="white" transform="translate(22 17)"/>
</clipPath>
</defs>
</svg>
