<svg width="60" height="60" viewBox="0 0 60 60" fill="none" xmlns="http://www.w3.org/2000/svg">
<circle cx="30" cy="30" r="29.5" fill="white" stroke="#D9D9D9"/>
<mask id="mask0_49_406" style="mask-type:alpha" maskUnits="userSpaceOnUse" x="6" y="6" width="48" height="48">
<rect x="6" y="6" width="48" height="48" fill="#D9D9D9"/>
</mask>
<g mask="url(#mask0_49_406)">
<path d="M30 39.3C32.6 39.3 34.8 38.4 36.6 36.6C38.4 34.8 39.3 32.6 39.3 30C39.3 27.4 38.4 25.2 36.6 23.4C34.8 21.6 32.6 20.7 30 20.7C27.4 20.7 25.2 21.6 23.4 23.4C21.6 25.2 20.7 27.4 20.7 30C20.7 32.6 21.6 34.8 23.4 36.6C25.2 38.4 27.4 39.3 30 39.3ZM30 50C27.2667 50 24.6833 49.475 22.25 48.425C19.8167 47.375 17.6917 45.9417 15.875 44.125C14.0583 42.3083 12.625 40.1833 11.575 37.75C10.525 35.3167 10 32.7333 10 30C10 27.2333 10.525 24.6333 11.575 22.2C12.625 19.7667 14.0583 17.65 15.875 15.85C17.6917 14.05 19.8167 12.625 22.25 11.575C24.6833 10.525 27.2667 10 30 10C32.7667 10 35.3667 10.525 37.8 11.575C40.2333 12.625 42.35 14.05 44.15 15.85C45.95 17.65 47.375 19.7667 48.425 22.2C49.475 24.6333 50 27.2333 50 30C50 32.7333 49.475 35.3167 48.425 37.75C47.375 40.1833 45.95 42.3083 44.15 44.125C42.35 45.9417 40.2333 47.375 37.8 48.425C35.3667 49.475 32.7667 50 30 50ZM30 47C34.7333 47 38.75 45.3417 42.05 42.025C45.35 38.7083 47 34.7 47 30C47 25.2667 45.35 21.25 42.05 17.95C38.75 14.65 34.7333 13 30 13C25.3 13 21.2917 14.65 17.975 17.95C14.6583 21.25 13 25.2667 13 30C13 34.7 14.6583 38.7083 17.975 42.025C21.2917 45.3417 25.3 47 30 47Z" fill="#FF0000"/>
</g>
</svg>
