<svg width="60" height="60" viewBox="0 0 60 60" fill="none" xmlns="http://www.w3.org/2000/svg">
<circle cx="30" cy="30" r="29.5" fill="white" stroke="#D9D9D9"/>
<mask id="mask0_49_409" style="mask-type:alpha" maskUnits="userSpaceOnUse" x="4" y="6" width="48" height="48">
<rect x="4" y="6" width="48" height="48" fill="#D9D9D9"/>
</mask>
<g mask="url(#mask0_49_409)">
<path d="M26.4 37.7L32 32.1L37.6 37.7L39.75 35.55L34.1 30L39.65 24.45L37.5 22.3L32 27.9L26.4 22.3L24.25 24.45L29.9 30L24.25 35.55L26.4 37.7ZM10 30L18.45 18.05C18.8833 17.45 19.4 16.9583 20 16.575C20.6 16.1917 21.2667 16 22 16H43C43.825 16 44.5313 16.2937 45.1188 16.8813C45.7063 17.4688 46 18.175 46 19V41C46 41.825 45.7063 42.5312 45.1188 43.1187C44.5313 43.7062 43.825 44 43 44H22C21.2667 44 20.6 43.8083 20 43.425C19.4 43.0417 18.8833 42.55 18.45 41.95L10 30ZM13.75 30L21.45 41H43V19H21.45L13.75 30Z" fill="#1C1B1F"/>
</g>
</svg>
