<svg width="60" height="60" viewBox="0 0 60 60" fill="none" xmlns="http://www.w3.org/2000/svg">
<circle cx="30" cy="30" r="29.5" fill="white" stroke="#D9D9D9"/>
<mask id="mask0_49_403" style="mask-type:alpha" maskUnits="userSpaceOnUse" x="6" y="6" width="48" height="48">
<rect x="6" y="6" width="48" height="48" fill="#D9D9D9"/>
</mask>
<g mask="url(#mask0_49_403)">
<path d="M22.5 37.5H37.5V22.5H22.5V37.5ZM30.0133 50C27.2555 50 24.6638 49.475 22.2383 48.425C19.8128 47.375 17.6917 45.9417 15.875 44.125C14.0583 42.3083 12.625 40.186 11.575 37.7579C10.525 35.3299 10 32.7356 10 29.975C10 27.2144 10.525 24.6201 11.575 22.192C12.625 19.764 14.0583 17.65 15.875 15.85C17.6917 14.05 19.814 12.625 22.2421 11.575C24.6701 10.525 27.2644 10 30.025 10C32.7856 10 35.38 10.525 37.808 11.575C40.236 12.625 42.35 14.05 44.15 15.85C45.95 17.65 47.375 19.7667 48.425 22.2C49.475 24.6333 50 27.2289 50 29.9867C50 32.7445 49.475 35.3362 48.425 37.7617C47.375 40.1872 45.95 42.3053 44.15 44.1158C42.35 45.9263 40.2333 47.3597 37.8 48.4158C35.3667 49.4719 32.7711 50 30.0133 50ZM30.025 47C34.7417 47 38.75 45.3417 42.05 42.025C45.35 38.7083 47 34.6917 47 29.975C47 25.2583 45.3531 21.25 42.0594 17.95C38.7656 14.65 34.7458 13 30 13C25.3 13 21.2917 14.6469 17.975 17.9406C14.6583 21.2344 13 25.2542 13 30C13 34.7 14.6583 38.7083 17.975 42.025C21.2917 45.3417 25.3083 47 30.025 47Z" fill="#FF0000"/>
</g>
</svg>
