<svg width="60" height="60" viewBox="0 0 60 60" fill="none" xmlns="http://www.w3.org/2000/svg">
<circle cx="30" cy="30" r="29.5" fill="white" stroke="#D9D9D9"/>
<path d="M42.4258 36.3203L35.4648 29.7812C34.9375 29.3125 34.3281 29.0547 33.6953 29.0547C33.0508 29.0547 32.4766 29.2773 31.9375 29.7578L26.6406 34.4922L24.4727 32.5352C23.9805 32.0898 23.4414 31.8672 22.8906 31.8672C22.3633 31.8672 21.8711 32.0781 21.3789 32.5234L16.9141 36.5547C16.9844 38.6758 17.8516 39.7539 19.5977 39.7539H39.2383C41.3594 39.7539 42.4258 38.5703 42.4258 36.3203ZM24.7305 29.8984C26.2422 29.8984 27.4844 28.6562 27.4844 27.1328C27.4844 25.6211 26.2422 24.3672 24.7305 24.3672C23.207 24.3672 21.9648 25.6211 21.9648 27.1328C21.9648 28.6562 23.207 29.8984 24.7305 29.8984ZM19.6797 40.5742H39.9531C42.4141 40.5742 43.6328 39.3672 43.6328 36.9531V22.6328C43.6328 20.2188 42.4141 19 39.9531 19H19.6797C17.2305 19 16 20.2188 16 22.6328V36.9531C16 39.3672 17.2305 40.5742 19.6797 40.5742ZM19.7031 38.6875C18.5312 38.6875 17.8867 38.0664 17.8867 36.8477V22.7383C17.8867 21.5195 18.5312 20.8867 19.7031 20.8867H39.9297C41.0898 20.8867 41.7461 21.5195 41.7461 22.7383V36.8477C41.7461 38.0664 41.0898 38.6875 39.9297 38.6875H19.7031Z" fill="#3AC3EF"/>
</svg>
