<svg width="28" height="29" viewBox="0 0 28 29" fill="none" xmlns="http://www.w3.org/2000/svg">
<g clip-path="url(#clip0_7_9699)">
<path d="M2 14.2216C2 20.7607 7.42578 26.1748 13.9531 26.1748C20.4922 26.1748 25.9062 20.7607 25.9062 14.2216C25.9062 10.2841 23.9141 6.74507 20.9023 4.55366C20.3867 4.15522 19.7422 4.28413 19.4492 4.7646C19.1562 5.25678 19.3086 5.80757 19.7891 6.17085C22.2852 7.9521 23.9023 10.8935 23.9141 14.2216C23.9258 19.7529 19.4844 24.1826 13.9531 24.1826C8.42188 24.1826 4.00391 19.7529 4.00391 14.2216C4.00391 9.47553 7.26172 5.53803 11.6914 4.53022V6.206C11.6914 7.03803 12.2656 7.26069 12.9102 6.80366L16.6484 4.17866C17.1758 3.81538 17.1875 3.25288 16.6484 2.86616L12.9219 0.24116C12.2656 -0.22759 11.6914 -0.00493437 11.6914 0.838816V2.49116C6.20703 3.56928 2 8.456 2 14.2216ZM13.7773 19.1669C15.7227 19.1669 17 17.913 17 16.0263C17 14.3037 15.8398 13.0732 14.1641 13.0732C13.4258 13.0732 12.6172 13.4365 12.3125 14.0341H12.3711L12.582 11.3857H16.0859C16.4375 11.3857 16.7305 11.1044 16.7305 10.706C16.7305 10.3076 16.4375 10.0498 16.0859 10.0498H12.3359C11.7266 10.0498 11.3867 10.4013 11.3398 11.0224L11.082 14.3974C11.0352 14.9833 11.3398 15.2646 11.8438 15.2646C12.2305 15.2646 12.4062 15.1943 12.7344 14.9365C13.1914 14.5263 13.543 14.3623 14.0117 14.3623C14.9258 14.3623 15.5352 15.0302 15.5352 16.0498C15.5352 17.081 14.8086 17.831 13.8477 17.831C13.1445 17.831 12.5586 17.4326 12.2539 16.8232C12.0781 16.5185 11.8672 16.3544 11.5742 16.3544C11.1875 16.3544 10.918 16.6357 10.918 17.0341C10.918 17.1982 10.9531 17.3505 11.0117 17.5029C11.3281 18.3466 12.3594 19.1669 13.7773 19.1669Z" fill="black" fill-opacity="0.8"/>
</g>
<defs>
<clipPath id="clip0_7_9699">
<rect width="23.9062" height="28.455" fill="white" transform="translate(2)"/>
</clipPath>
</defs>
</svg>
