<svg width="28" height="29" viewBox="0 0 28 29" fill="none" xmlns="http://www.w3.org/2000/svg">
<g clip-path="url(#clip0_7_9704)">
<path d="M2 14.2254C2 20.7645 7.42578 26.1785 13.9531 26.1785C20.4922 26.1785 25.9062 20.7645 25.9062 14.2254C25.9062 8.45979 21.6992 3.57307 16.2148 2.49495V0.830886C16.2148 -0.00114524 15.6406 -0.223801 15.0078 0.23323L11.2695 2.84651C10.7305 3.22151 10.7188 3.78401 11.2695 4.17073L14.9961 6.79573C15.6406 7.26448 16.2148 7.04182 16.2148 6.19807V4.53401C20.6445 5.54182 23.9023 9.47932 23.9023 14.2254C23.9023 19.7567 19.4844 24.1864 13.9531 24.1864C8.42188 24.1864 3.98047 19.7567 3.99219 14.2254C4.00391 10.8973 5.62109 7.95589 8.11719 6.17464C8.59766 5.81135 8.75 5.26057 8.45703 4.76839C8.16406 4.28792 7.51953 4.15901 7.00391 4.55745C3.99219 6.74885 2 10.2879 2 14.2254ZM13.8359 19.1707C15.7812 19.1707 17.0586 17.9168 17.0586 16.0301C17.0586 14.3074 15.8984 13.077 14.2227 13.077C13.4844 13.077 12.6758 13.4403 12.3711 14.0379H12.4297L12.6406 11.3895H16.1445C16.4961 11.3895 16.7891 11.1082 16.7891 10.7098C16.7891 10.3114 16.4961 10.0535 16.1445 10.0535H12.3945C11.7852 10.0535 11.4453 10.4051 11.3984 11.0262L11.1406 14.4012C11.0938 14.9871 11.3984 15.2684 11.9023 15.2684C12.2891 15.2684 12.4648 15.1981 12.793 14.9403C13.25 14.5301 13.6016 14.366 14.0703 14.366C14.9844 14.366 15.5938 15.034 15.5938 16.0535C15.5938 17.0848 14.8672 17.8348 13.9062 17.8348C13.2031 17.8348 12.6172 17.4364 12.3125 16.827C12.1367 16.5223 11.9258 16.3582 11.6328 16.3582C11.2461 16.3582 10.9766 16.6395 10.9766 17.0379C10.9766 17.202 11.0117 17.3543 11.0703 17.5067C11.3867 18.3504 12.418 19.1707 13.8359 19.1707Z" fill="black" fill-opacity="0.8"/>
</g>
<defs>
<clipPath id="clip0_7_9704">
<rect width="23.9062" height="28.4626" fill="white" transform="translate(2)"/>
</clipPath>
</defs>
</svg>
