<svg width="69" height="69" viewBox="0 0 69 69" fill="none" xmlns="http://www.w3.org/2000/svg">
<mask id="mask0_4_439" style="mask-type:alpha" maskUnits="userSpaceOnUse" x="0" y="0" width="69" height="69">
<rect width="69" height="69" fill="#D9D9D9"/>
</mask>
<g mask="url(#mask0_4_439)">
<path d="M33.617 48.3616C34.0961 48.3616 34.4914 48.2058 34.8029 47.8944C35.1144 47.5829 35.2701 47.1876 35.2701 46.7084V36.5741H45.5482C45.9795 36.5741 46.3508 36.4183 46.6623 36.1069C46.9737 35.7954 47.1295 35.4001 47.1295 34.9209C47.1295 34.4418 46.9737 34.0465 46.6623 33.735C46.3508 33.4236 45.9555 33.2678 45.4763 33.2678H35.2701V22.6303C35.2701 22.1991 35.1144 21.8277 34.8029 21.5163C34.4914 21.2048 34.0961 21.0491 33.617 21.0491C33.1378 21.0491 32.7545 21.2048 32.467 21.5163C32.1795 21.8277 32.0357 22.223 32.0357 22.7022V33.2678H21.3982C20.967 33.2678 20.5956 33.4236 20.2842 33.735C19.9727 34.0465 19.817 34.4418 19.817 34.9209C19.817 35.4001 19.9727 35.7954 20.2842 36.1069C20.5956 36.4183 20.9909 36.5741 21.4701 36.5741H32.0357V46.7803C32.0357 47.2116 32.1795 47.5829 32.467 47.8944C32.7545 48.2058 33.1378 48.3616 33.617 48.3616ZM33.4732 62.0178C29.6399 62.0178 26.0581 61.323 22.7279 59.9334C19.3977 58.5439 16.4987 56.6152 14.031 54.1475C11.5633 51.6798 9.63467 48.7808 8.24509 45.4506C6.8555 42.1204 6.16071 38.5387 6.16071 34.7053C6.16071 30.872 6.8555 27.3022 8.24509 23.9959C9.63467 20.6897 11.5633 17.8027 14.031 15.335C16.4987 12.8673 19.3977 10.9267 22.7279 9.51313C26.0581 8.09959 29.6399 7.39282 33.4732 7.39282C37.3065 7.39282 40.8763 8.09959 44.1826 9.51313C47.4888 10.9267 50.3758 12.8673 52.8435 15.335C55.3112 17.8027 57.2519 20.6897 58.6654 23.9959C60.0789 27.3022 60.7857 30.872 60.7857 34.7053C60.7857 38.5387 60.0789 42.1204 58.6654 45.4506C57.2519 48.7808 55.3112 51.6798 52.8435 54.1475C50.3758 56.6152 47.4888 58.5439 44.1826 59.9334C40.8763 61.323 37.3065 62.0178 33.4732 62.0178Z" fill="#3AC3EF"/>
</g>
</svg>
