<svg width="37" height="25" viewBox="0 0 37 25" fill="none" xmlns="http://www.w3.org/2000/svg">
<path d="M4.17188 17.2969C5.96484 17.2969 7.64062 16.3242 8.35547 14.8125H8.39062V16.3359C8.39062 16.9219 8.78906 17.3086 9.33984 17.3086C9.91406 17.3086 10.3008 16.9219 10.3008 16.2891V8.53125C10.3008 6 8.4375 4.37109 5.49609 4.37109C3.29297 4.37109 1.48828 5.33203 0.808594 6.82031C0.679688 7.11328 0.597656 7.39453 0.597656 7.64062C0.597656 8.15625 0.972656 8.49609 1.47656 8.49609C1.83984 8.49609 2.12109 8.35547 2.29688 8.02734C2.95312 6.67969 3.9375 6.05859 5.4375 6.05859C7.25391 6.05859 8.32031 7.06641 8.32031 8.69531V9.69141L4.58203 9.90234C1.64062 10.0547 0 11.4258 0 13.582C0 15.8086 1.71094 17.2969 4.17188 17.2969ZM4.65234 15.668C3.08203 15.668 2.02734 14.8125 2.02734 13.5352C2.02734 12.3164 3.01172 11.4961 4.82812 11.3789L8.32031 11.1445V12.375C8.32031 14.2266 6.69141 15.668 4.65234 15.668ZM13.5703 17.2969C14.1328 17.2969 14.543 16.9102 14.543 16.3008V14.625H14.5781C15.3398 16.2773 16.875 17.2969 18.8086 17.2969C22.0078 17.2969 24.1172 14.7539 24.1172 10.8398C24.1172 6.91406 21.9961 4.37109 18.832 4.37109C16.9336 4.37109 15.3867 5.40234 14.6602 7.04297H14.6016V1.05469C14.6016 0.410156 14.2031 0 13.6172 0C13.0195 0 12.6211 0.410156 12.6211 1.05469V16.3008C12.6211 16.9219 13.0078 17.2969 13.5703 17.2969ZM18.375 15.5977C16.1602 15.5977 14.6016 13.7109 14.6016 10.8398C14.6016 7.98047 16.1719 6.09375 18.375 6.09375C20.6484 6.09375 22.0781 7.93359 22.0781 10.8398C22.0781 13.7578 20.6367 15.5977 18.375 15.5977ZM31.2422 17.2969C33.5391 17.2969 35.5195 16.0312 36.1875 14.25C36.2461 14.0508 36.293 13.8633 36.293 13.6875C36.293 13.1953 35.9297 12.8438 35.4375 12.8438C34.9922 12.8438 34.7695 13.0078 34.5 13.5234C33.8906 14.8594 32.8359 15.5977 31.2539 15.5977C28.957 15.5977 27.457 13.7812 27.457 10.8398C27.457 7.93359 28.9688 6.08203 31.2539 6.08203C32.7656 6.08203 33.8555 6.78516 34.4766 8.16797C34.7344 8.66016 34.9688 8.83594 35.4023 8.83594C35.9062 8.83594 36.2578 8.50781 36.2578 7.99219C36.2578 7.85156 36.2109 7.67578 36.1758 7.51172C35.5898 5.71875 33.5859 4.37109 31.207 4.37109C27.7148 4.37109 25.4297 6.9375 25.4297 10.8633C25.4297 14.8008 27.7383 17.2969 31.2422 17.2969ZM1.41797 24.668C2.20312 24.668 2.83594 24.0352 2.83594 23.2617C2.83594 22.4766 2.20312 21.8555 1.41797 21.8555C0.644531 21.8555 0.0117188 22.4766 0.0117188 23.2617C0.0117188 24.0352 0.644531 24.668 1.41797 24.668ZM7.00781 24.668C7.79297 24.668 8.42578 24.0352 8.42578 23.2617C8.42578 22.4766 7.79297 21.8555 7.00781 21.8555C6.23438 21.8555 5.60156 22.4766 5.60156 23.2617C5.60156 24.0352 6.23438 24.668 7.00781 24.668ZM12.5859 24.668C13.3711 24.668 13.9922 24.0352 13.9922 23.2617C13.9922 22.4766 13.3711 21.8555 12.5859 21.8555C11.8125 21.8555 11.1797 22.4766 11.1797 23.2617C11.1797 24.0352 11.8125 24.668 12.5859 24.668ZM18.1641 24.668C18.9492 24.668 19.5703 24.0352 19.5703 23.2617C19.5703 22.4766 18.9492 21.8555 18.1641 21.8555C17.3906 21.8555 16.7578 22.4766 16.7578 23.2617C16.7578 24.0352 17.3906 24.668 18.1641 24.668ZM23.7422 24.668C24.5273 24.668 25.1484 24.0352 25.1484 23.2617C25.1484 22.4766 24.5273 21.8555 23.7422 21.8555C22.9688 21.8555 22.3359 22.4766 22.3359 23.2617C22.3359 24.0352 22.9688 24.668 23.7422 24.668ZM29.3203 24.668C30.0938 24.668 30.7266 24.0352 30.7266 23.2617C30.7266 22.4766 30.0938 21.8555 29.3203 21.8555C28.5469 21.8555 27.9141 22.4766 27.9141 23.2617C27.9141 24.0352 28.5469 24.668 29.3203 24.668ZM34.8984 24.668C35.6836 24.668 36.3047 24.0352 36.3047 23.2617C36.3047 22.4766 35.6836 21.8555 34.8984 21.8555C34.125 21.8555 33.4922 22.4766 33.4922 23.2617C33.4922 24.0352 34.125 24.668 34.8984 24.668Z" fill="black" fill-opacity="0.44"/>
</svg>
