<svg width="28" height="28" viewBox="0 0 28 28" fill="none" xmlns="http://www.w3.org/2000/svg">
<g clip-path="url(#clip0_7_9248)">
<path d="M13.9531 25.9062C20.4922 25.9062 25.9062 20.4805 25.9062 13.9531C25.9062 7.41406 20.4805 2 13.9414 2C7.41406 2 2 7.41406 2 13.9531C2 20.4805 7.42578 25.9062 13.9531 25.9062ZM13.9531 23.9141C8.42188 23.9141 4.00391 19.4844 4.00391 13.9531C4.00391 8.42188 8.41016 3.99219 13.9414 3.99219C19.4727 3.99219 23.9141 8.42188 23.9141 13.9531C23.9141 19.4844 19.4844 23.9141 13.9531 23.9141ZM11.7617 18.5352L18.4297 14.5859C18.9219 14.3047 18.9102 13.625 18.4297 13.332L11.7617 9.38281C11.2578 9.08984 10.5898 9.3125 10.5898 9.88672V18.0312C10.5898 18.5938 11.2109 18.8633 11.7617 18.5352Z" fill="black" fill-opacity="0.8"/>
</g>
<defs>
<clipPath id="clip0_7_9248">
<rect width="23.9062" height="23.918" fill="white" transform="translate(2 2)"/>
</clipPath>
</defs>
</svg>
